<svg width="167" height="26" viewBox="0 0 167 26" fill="none" xmlns="http://www.w3.org/2000/svg">
<path d="M12.0853 2.91817C12.3851 1.9979 13.687 1.9979 13.9869 2.91817L15.738 8.29257C15.8721 8.7042 16.2559 8.98278 16.6888 8.98278H22.3495C23.3189 8.98278 23.7213 10.2238 22.9363 10.7926L18.3614 14.1072C18.0099 14.3619 17.8629 14.8141 17.9973 15.2268L19.7459 20.5934C20.0459 21.5143 18.9926 22.2812 18.2084 21.713L13.6228 18.3907C13.2728 18.137 12.7994 18.137 12.4494 18.3907L7.86382 21.713C7.07956 22.2812 6.02627 21.5143 6.3263 20.5934L8.07487 15.2268C8.20932 14.8141 8.06224 14.3619 7.71078 14.1072L3.13591 10.7926C2.3509 10.2238 2.75323 8.98278 3.72263 8.98278H9.38338C9.81631 8.98278 10.2001 8.7042 10.3342 8.29257L12.0853 2.91817Z" fill="#181818"/>
<path d="M47.1574 2.91817C47.4573 1.9979 48.7592 1.9979 49.059 2.91817L50.8101 8.29257C50.9442 8.7042 51.328 8.98278 51.7609 8.98278H57.4217C58.3911 8.98278 58.7934 10.2238 58.0084 10.7926L53.4335 14.1072C53.0821 14.3619 52.935 14.8141 53.0694 15.2268L54.818 20.5934C55.118 21.5143 54.0648 22.2812 53.2805 21.713L48.6949 18.3907C48.3449 18.137 47.8715 18.137 47.5215 18.3907L42.936 21.713C42.1517 22.2812 41.0984 21.5143 41.3984 20.5934L43.147 15.2268C43.2815 14.8141 43.1344 14.3619 42.7829 14.1072L38.2081 10.7926C37.423 10.2238 37.8254 8.98278 38.7948 8.98278H44.4555C44.8885 8.98278 45.2722 8.7042 45.4063 8.29257L47.1574 2.91817Z" fill="#181818"/>
<path d="M82.2296 2.91817C82.5294 1.9979 83.8313 1.9979 84.1312 2.91817L85.8823 8.29257C86.0164 8.7042 86.4002 8.98278 86.8331 8.98278H92.4938C93.4632 8.98278 93.8656 10.2238 93.0806 10.7926L88.5057 14.1072C88.1542 14.3619 88.0071 14.8141 88.1416 15.2268L89.8902 20.5934C90.1902 21.5143 89.1369 22.2812 88.3526 21.713L83.7671 18.3907C83.4171 18.137 82.9437 18.137 82.5937 18.3907L78.0081 21.713C77.2238 22.2812 76.1706 21.5143 76.4706 20.5934L78.2192 15.2268C78.3536 14.8141 78.2065 14.3619 77.8551 14.1072L73.2802 10.7926C72.4952 10.2238 72.8975 8.98278 73.8669 8.98278H79.5277C79.9606 8.98278 80.3444 8.7042 80.4785 8.29257L82.2296 2.91817Z" fill="#181818"/>
<path d="M117.302 2.91817C117.602 1.9979 118.904 1.9979 119.203 2.91817L120.955 8.29257C121.089 8.7042 121.472 8.98278 121.905 8.98278H127.566C128.535 8.98278 128.938 10.2238 128.153 10.7926L123.578 14.1072C123.226 14.3619 123.079 14.8141 123.214 15.2268L124.962 20.5934C125.262 21.5143 124.209 22.2812 123.425 21.713L118.839 18.3907C118.489 18.137 118.016 18.137 117.666 18.3907L113.08 21.713C112.296 22.2812 111.243 21.5143 111.543 20.5934L113.291 15.2268C113.426 14.8141 113.279 14.3619 112.927 14.1072L108.352 10.7926C107.567 10.2238 107.97 8.98278 108.939 8.98278H114.6C115.033 8.98278 115.417 8.7042 115.551 8.29257L117.302 2.91817Z" fill="#E5E5E5"/>
<path d="M152.374 2.91817C152.674 1.9979 153.976 1.9979 154.276 2.91817L156.027 8.29257C156.161 8.7042 156.545 8.98278 156.977 8.98278H162.638C163.608 8.98278 164.01 10.2238 163.225 10.7926L158.65 14.1072C158.299 14.3619 158.152 14.8141 158.286 15.2268L160.035 20.5934C160.335 21.5143 159.281 22.2812 158.497 21.713L153.912 18.3907C153.561 18.137 153.088 18.137 152.738 18.3907L148.153 21.713C147.368 22.2812 146.315 21.5143 146.615 20.5934L148.364 15.2268C148.498 14.8141 148.351 14.3619 147.999 14.1072L143.425 10.7926C142.64 10.2238 143.042 8.98278 144.011 8.98278H149.672C150.105 8.98278 150.489 8.7042 150.623 8.29257L152.374 2.91817Z" fill="#E5E5E5"/>
</svg>
